# xmcd CD database file
# Copyright (C) 1996 Ti Kan
#
# Track frame offsets:
#	150
#	11515
#	22665
#	34130
#	45325
#	57347
#	67752
#	78205
#	89510
#	100695
#	111580
#	122527
#	132305
#	144367
#	157307
#	168990
#	181685
#	192312
#	204022
#	214590
#
# Disc length: 3024 seconds
#
# Revision: 1
# Processed by: cddbd v1.4b41PL1 Copyright (c) Steve Scherf et al.
# Submitted via: EasyCD 2.21 - (C) 1996 Greg Leichner
#
DISCID=fc0bce14
DTITLE=Sonny James - Capitol Collector's Series
DYEAR=1900
DGENRE=
TTITLE0=Young Love
TTITLE1=First Date, First Kiss, First Love
TTITLE2=The Minute You're Gone
TTITLE3=Baltimore
TTITLE4=Ask Marie
TTITLE5=You're The Only World I Know
TTITLE6=True Love's A Blessing
TTITLE7=Take Good Care Of Her
TTITLE8=Room In Your Heart
TTITLE9=Need You
TTITLE10=I'll Never Find Another You
TTITLE11=Heaven Says Hello
TTITLE12=Only The Lonely (Know The Way I Feel)
TTITLE13=Since I Met You Baby
TTITLE14=It's Just A Matter Of Time
TTITLE15=My Love
TTITLE16=Empty Arms
TTITLE17=Bright Lights, Big City
TTITLE18=Only Love Can Break A Heart
TTITLE19=That's Why I Love You Like I Do
EXTD=
EXTT0=
EXTT1=
EXTT2=
EXTT3=
EXTT4=
EXTT5=
EXTT6=
EXTT7=
EXTT8=
EXTT9=
EXTT10=
EXTT11=
EXTT12=
EXTT13=
EXTT14=
EXTT15=
EXTT16=
EXTT17=
EXTT18=
EXTT19=
PLAYORDER=
